<svg id="Layer_1" data-name="Layer 1" xmlns="http://www.w3.org/2000/svg" viewBox="0 0 725.14 720.09"><defs><style>.cls-1{fill:#fff;}</style></defs><rect width="725.14" height="720.09"/><path class="cls-1" d="M295.92,183.4l70.18-70.18,142,142-21,21,39.45,39.45h0l46.41-45.25C598,245.9,572.59,225,572.59,225S430.33,87.91,394.72,52.47s-60.39-1.24-60.39-1.24S288.91,96,243.59,140.62l-4.09,4.1c-44.68,45.31-89.39,90.73-89.39,90.73s-34.19,24.78,1.24,60.39S323.89,473.72,323.89,473.72s20.89,25.42,45.35.34l45.26-46.41h0L375.05,388.2l-21,21-142-142L282.28,197Z"/><path class="cls-1" d="M423.35,537.39l-70.18,70.18-142-142,21-21-39.45-39.45h0l-46.41,45.25c-25.08,24.47.35,45.36.35,45.36s142.26,137.1,177.87,172.54,60.39,1.24,60.39,1.24,45.43-44.72,90.74-89.39l4.09-4.09c44.68-45.32,89.4-90.74,89.4-90.74s34.18-24.78-1.25-60.39S395.38,247.08,395.38,247.08s-20.89-25.43-45.35-.35l-45.26,46.41h0l39.45,39.45,21-21,142,142L437,523.75Z"/></svg>