<svg id="Layer_1" data-name="Layer 1" xmlns="http://www.w3.org/2000/svg" viewBox="0 0 468 671.27"><defs><style>.cls-1{fill:#fff;}</style></defs><path class="cls-1" d="M170.29,161.56l70.18-70.18,142,142-21,21,39.45,39.45h0l46.41-45.26c25.09-24.46-.34-45.36-.34-45.36S304.69,66.07,269.08,30.63s-60.38-1.25-60.38-1.25S163.27,74.1,118,118.78l-4.09,4.09c-44.68,45.31-89.4,90.74-89.4,90.74S-9.72,238.39,25.72,274,198.25,451.87,198.25,451.87s20.9,25.43,45.36.34l45.26-46.4h0l-39.45-39.45-21,21-142-142,70.18-70.18Z"/><path class="cls-1" d="M297.71,515.54l-70.18,70.19-142-142,21-21L67.11,383.32h0L20.7,428.58C-4.39,453,21,473.94,21,473.94S163.31,611,198.92,646.47s60.38,1.25,60.38,1.25S304.73,603,350,558.32l4.09-4.09c44.68-45.31,89.4-90.74,89.4-90.74s34.19-24.78-1.25-60.38S269.75,225.23,269.75,225.23s-20.9-25.43-45.36-.34L179.13,271.3h0l39.45,39.44,21-21,142,142L311.36,501.9Z"/></svg>